<?xml version="1.0" encoding="utf-8"?>
<!-- Generator: Adobe Illustrator 24.1.2, SVG Export Plug-In . SVG Version: 6.00 Build 0)  -->
<svg version="1.1" id="Layer_1" xmlns="http://www.w3.org/2000/svg" xmlns:xlink="http://www.w3.org/1999/xlink" x="0px" y="0px"
	 viewBox="0 0 563.9 518.6" style="enable-background:new 0 0 563.9 518.6;" xml:space="preserve">
<style type="text/css">
	.st0{fill:url(#SVGID_1_);}
</style>
<linearGradient id="SVGID_1_" gradientUnits="userSpaceOnUse" x1="256.629" y1="383.0085" x2="34.858" y2="436.5963">
	<stop  offset="0.274" style="stop-color:#5699C0"/>
	<stop  offset="0.3293" style="stop-color:#669CB4"/>
	<stop  offset="0.5647" style="stop-color:#A7A782"/>
	<stop  offset="0.7629" style="stop-color:#D7AF5E"/>
	<stop  offset="0.9139" style="stop-color:#F4B447"/>
	<stop  offset="1" style="stop-color:#FFB63F"/>
</linearGradient>
<path class="st0" d="M225.7,372.8c-12.4-25.5-42.9-36.1-68.3-23.7c-6.8,3.3-12.5,8-17.1,13.5l0,0c-11.8,14.4-16.1,16.1-34.5,13.7
	l0,0c-9.5-1.2-19.5,0.2-28.8,4.8c-25.4,12.4-35.9,43.2-23.6,68.7c12.4,25.5,42.9,36.1,68.3,23.7c6.8-3.3,12.5-8,17.1-13.5l0,0
	c11.8-14.4,16.1-16.1,34.5-13.7l0,0c9.5,1.2,19.5-0.2,28.8-4.8C227.5,429.1,238,398.3,225.7,372.8z"/>
</svg>
