<?xml version="1.0" encoding="utf-8"?>
<!-- Generator: Adobe Illustrator 24.1.2, SVG Export Plug-In . SVG Version: 6.00 Build 0)  -->
<svg version="1.1" id="Layer_1" xmlns="http://www.w3.org/2000/svg" xmlns:xlink="http://www.w3.org/1999/xlink" x="0px" y="0px"
	 viewBox="0 0 563.9 518.6" style="enable-background:new 0 0 563.9 518.6;" xml:space="preserve">
<style type="text/css">
	.st0{fill:url(#SVGID_1_);}
</style>
<linearGradient id="SVGID_1_" gradientUnits="userSpaceOnUse" x1="315.8918" y1="388.5912" x2="8.544680e-02" y2="464.9013">
	<stop  offset="0.274" style="stop-color:#5699C0"/>
	<stop  offset="0.3293" style="stop-color:#669CB4"/>
	<stop  offset="0.5647" style="stop-color:#A7A782"/>
	<stop  offset="0.7629" style="stop-color:#D7AF5E"/>
	<stop  offset="0.9139" style="stop-color:#F4B447"/>
	<stop  offset="1" style="stop-color:#FFB63F"/>
</linearGradient>
<path class="st0" d="M278.9,415.5c-23.4-19.5-49.7-10.4-119.3-35.7c-7.1-2.6-11.5-7.1-19.3-17.2l0,0c-11.2-11.9-25.1-6.8-34.5,13.7
	l0,0c-3.8,15.5-9.2,23.1-18.5,27.6c-25.4,12.4-76.1,47.3-63.8,72.8c12.4,25.5,44.1,14,69.3,1.1c6.6-3.4,15.9-20.6,34.8-11.4l9.4,8.1
	c7.2,8.6,48.8,22.5,49.2-3.3l2.6-12.2c7.3-15.4,33.7,23.4,60.1,23.1C277.3,482,300.7,433.7,278.9,415.5z"/>
</svg>
