<?xml version="1.0" encoding="utf-8"?>
<!-- Generator: Adobe Illustrator 24.1.3, SVG Export Plug-In . SVG Version: 6.00 Build 0)  -->
<svg version="1.1" xmlns="http://www.w3.org/2000/svg" xmlns:xlink="http://www.w3.org/1999/xlink" x="0px" y="0px"
	 viewBox="0 0 563.9 518.6" style="enable-background:new 0 0 563.9 518.6;" xml:space="preserve">
<style type="text/css">
	.st0{display:none;}
	.st1{display:inline;}
	.st2{fill:#DCA1C8;}
	.st3{opacity:0.56;}
	.st4{fill:#BC5858;}
</style>
<g id="Layer_2" class="st0">
	<g class="st1">
		<path class="st2" d="M137,441.4c-11.6-0.1-33.1-8.4-45.4-21.6v47.8c12.3-13.2,33.6-20.6,45.4-21.6c19.8-0.4,40.6,4.9,79.3,37.8
			v-80.3C177.7,436.5,156.8,441.8,137,441.4z"/>
		<circle class="st2" cx="65.8" cy="443.7" r="35.1"/>
		<circle class="st2" cx="250.7" cy="443.7" r="52.7"/>
	</g>
</g>
<g id="Layer_5" class="st3">
	<path class="st4" d="M298.2,415c-12.7-23.3-41.4-29.4-55-26.3c-17.1,5.5-59.8,38.3-66.4,43l-13.9,5.9c-18.6,7.2-38.1,3.7-49.4-1.8
		l-13.9-8.9c-3.5-2.2-11.3-21.5-41.5-17.4c-24.9,5.3-34.2,36.3-21,54.6c19.7,24.5,44.5,13.4,53.1,5c8.7-9.8,20.3-15.3,27.4-17.9
		l11.2-4.2c16.6-3.2,35.6,1.6,41.5,4.5l20.9,10.4c24,14.5,44.1,44.3,86.1,21.7C302.5,468.2,309.5,438.9,298.2,415z"/>
</g>
</svg>
