<?xml version="1.0" encoding="utf-8"?>
<!-- Generator: Adobe Illustrator 24.1.2, SVG Export Plug-In . SVG Version: 6.00 Build 0)  -->
<svg version="1.1" xmlns="http://www.w3.org/2000/svg" xmlns:xlink="http://www.w3.org/1999/xlink" x="0px" y="0px"
	 viewBox="0 0 563.9 518.6" style="enable-background:new 0 0 563.9 518.6;" xml:space="preserve">
<style type="text/css">
	.st0{fill:url(#SVGID_1_);}
	.st1{opacity:0.38;}
	.st2{fill:#1F8E00;}
	.st3{fill:none;stroke:#8C0000;stroke-miterlimit:10;}
	.st4{display:none;}
	.st5{display:inline;opacity:0.64;}
	.st6{fill:#29D400;}
	.st7{fill:#5699C0;}
	.st8{fill:#3C15FF;}
	.st9{fill:#FF0096;}
	.st10{fill:#EEFF55;}
	.st11{fill:#FFB294;}
	.st12{fill:#15DAFF;}
	.st13{fill:#5F00AA;}
</style>
<g id="Layer_1">
	<linearGradient id="SVGID_1_" gradientUnits="userSpaceOnUse" x1="315.8286" y1="388.3297" x2="2.224345e-02" y2="464.6397">
		<stop  offset="0.274" style="stop-color:#5699C0"/>
		<stop  offset="0.3293" style="stop-color:#669CB4"/>
		<stop  offset="0.5647" style="stop-color:#A7A782"/>
		<stop  offset="0.7629" style="stop-color:#D7AF5E"/>
		<stop  offset="0.9139" style="stop-color:#F4B447"/>
		<stop  offset="1" style="stop-color:#FFB63F"/>
	</linearGradient>
	<path class="st0" d="M278.9,415.5c-23.4-19.5-49.7-10.4-119.3-35.7c-7.1-2.6-11.5-7.1-19.3-17.2l0,0c-11.2-11.9-24.9-8.1-34.3,12.4
		l-0.1,1.3c-3.8,15.5-9.2,23.1-18.5,27.6c-25.4,12.4-76.1,47.3-63.8,72.8c12.4,25.5,44.1,14,69.3,1.1c6.6-3.4,15.9-20.6,34.8-11.4
		l9.4,8.1c7.2,8.6,48.8,22.5,49.2-3.3l2.6-12.2c7.3-15.4,33.7,23.4,60.1,23.1C277.3,482,300.7,433.7,278.9,415.5z"/>
</g>
<g id="Layer_2" class="st1">
	<polygon class="st2" points="282,21.4 14.2,497.1 549.8,497.1 	"/>
</g>
<g id="Layer_3">
	<circle class="st3" cx="297.1" cy="16.7" r="169"/>
	<circle class="st3" cx="83.8" cy="197" r="169"/>
	<circle class="st3" cx="297.1" cy="252.8" r="84.5"/>
	<circle class="st3" cx="226.7" cy="337.3" r="84.5"/>
	<circle class="st3" cx="366.5" cy="340.1" r="84.5"/>
	<circle class="st3" cx="510.3" cy="218.8" r="169"/>
	<circle class="st3" cx="168.9" cy="445.5" r="169"/>
	<circle class="st3" cx="480.2" cy="445.5" r="169"/>
</g>
<g id="colors" class="st4">
	
		<image style="display:inline;overflow:visible;" width="2847" height="4957" xlink:href="../../CompBio/websitesketches/website-sketches_New.jpg"  transform="matrix(9.922860e-02 0 0 9.922860e-02 563.9084 112.2757)">
	</image>
	<g class="st5">
		<path class="st6" d="M87.5,373.4C55.1,400.1,27.2,432.2,5.3,468c-4.9,8.1-9.5,19-3.5,26.3c4.4,5.4,12.4,5.9,19.4,6
			c58.8,0.5,117.7,0.9,176.5,1.4c28.5,0.2,57.3,0.4,85.1-5.7c6.7-1.5,14-3.7,17.8-9.5c3.7-5.5,3.3-12.7,2.7-19.3
			c-1.5-16.9-2.9-33.8-4.4-50.6c-0.3-3.5-0.7-7.3-2.9-10.1c-5.8-7.2-17.2-1.8-25.1,3c-18.7,11.3-41.2,17.1-62.6,13.1
			c-21.5-3.9-41.4-18.4-49.1-38.8c-1.7-4.4-2.9-9.1-5.8-12.8c-4.7-6-12.9-7.9-20.5-8.8c-16-1.7-32.3-0.2-47.7,4.5"/>
		<g>
			<path class="st7" d="M86.5,372.3c-19.9,16.4-38.1,34.8-54.3,54.9c-8,9.9-15.5,20.3-22.5,31c-3.4,5.2-6.9,10.3-9.4,16
				c-2.2,5-3.8,10.7-2.3,16.1c3.5,12.2,18.4,11.5,28.5,11.5c14.9,0.1,29.7,0.2,44.6,0.4c29.6,0.2,59.2,0.5,88.9,0.7
				c14.7,0.1,29.4,0.2,44.1,0.3c14.4,0.1,28.7,0.1,43.1-0.9c7.1-0.5,14.1-1.2,21.2-2.2c6.6-1,13.3-2,19.7-3.9
				c5.2-1.6,10.3-4,13.6-8.5c3.5-4.9,3.8-11.2,3.4-17c-0.4-7.1-1.2-14.2-1.8-21.3c-0.6-7.2-1.3-14.5-1.9-21.7c-0.3-3.7-0.6-7.3-1-11
				c-0.3-2.9-0.6-5.9-1.8-8.6c-2.1-4.7-6.9-6.9-11.8-6.4c-5.3,0.5-10.3,2.9-14.9,5.5c-5.5,3.2-10.9,6.2-16.8,8.6
				c-11.9,4.8-24.8,7.3-37.6,6.5c-22.1-1.3-44-13.4-54.5-33.3c-2.7-5.2-3.9-11.2-6.9-16.3c-2.8-4.9-7.4-7.9-12.7-9.7
				c-5.8-1.9-12-2.4-18-2.7c-7-0.3-14,0-20.9,0.9c-6.7,0.9-13.3,2.3-19.8,4.2c-1.8,0.6-1.1,3.5,0.8,2.9c13.1-3.9,26.8-5.6,40.5-4.9
				c5.9,0.3,11.9,0.8,17.5,2.9c5.5,2,9.4,5.8,11.6,11.3c2.1,5.1,3.6,10.3,6.5,15.2c2.6,4.5,5.9,8.7,9.6,12.4
				c7.5,7.5,16.8,13.1,26.8,16.6c23,7.9,48.7,3.1,69.6-8.4c4.9-2.7,9.5-5.8,14.8-7.5c4.4-1.4,10-1.9,12.9,2.5
				c1.6,2.4,1.9,5.5,2.2,8.3c0.3,3.6,0.6,7.1,0.9,10.7c0.6,7.1,1.2,14.3,1.9,21.4c0.6,6.9,1.3,13.8,1.8,20.7
				c0.4,5.7,0.6,12.1-2.9,17c-3.2,4.5-8.9,6.5-14,7.8c-6.5,1.7-13.2,2.8-19.8,3.7c-27.7,3.7-55.9,2.7-83.8,2.5
				c-28.7-0.2-57.4-0.5-86.1-0.7c-14.5-0.1-28.9-0.2-43.4-0.3c-7.2-0.1-14.5-0.1-21.7-0.2c-6,0-12.3,0.4-18.2-0.8
				c-5.2-1-9.9-3.8-11.2-9.2c-1.3-5.4,1-11.3,3.5-16c2.8-5.4,6.3-10.5,9.6-15.6c3.5-5.2,7.1-10.4,10.8-15.4
				c14.8-20.1,31.6-38.7,50.1-55.5c4.5-4.1,9.1-8.1,13.8-12C90.1,373.2,87.9,371.1,86.5,372.3L86.5,372.3z"/>
		</g>
	</g>
	<g class="st5">
		<path class="st8" d="M314,409c-5.4,20.6-8.1,41.9-8.2,63.2c0,3.7,0.1,7.4,1.6,10.8c4,8.7,15.4,10.4,24.9,10.9
			c69.2,3.3,138.6,1.9,207.6-4.4c5.3-12.7-5.9-25.5-13.2-37.1c-10.1-15.9-13.7-35-22.6-51.6c-2-3.7-4.3-7.4-8-9.4
			c-3.7-2.1-8.2-2-12.5-2.4c-14.3-1.1-28.3-6.9-39.2-16.3c-8.8,13-20.7,23.8-34.3,31.7c-31.6,18.2-72.6,18.9-104.9,1.9"/>
		<g>
			<path class="st7" d="M312.6,408.6c-5.3,20.4-8.1,41.5-8.2,62.6c0,4.5,0,9.3,2.3,13.4c1.7,3.1,4.5,5.5,7.7,7
				c7.3,3.5,15.6,3.6,23.5,3.9c21.6,1,43.3,1.5,65,1.5c21.5,0,43-0.4,64.5-1.3c21.6-0.9,43.3-2.3,64.8-4.1c2.6-0.2,5.3-0.5,7.9-0.7
				c0.7-0.1,1.2-0.4,1.4-1.1c4.1-10.2-1.7-20.6-7.3-29c-3-4.6-6.2-9.1-8.9-13.9c-2.7-5-5-10.3-7-15.6c-4.1-10.5-7.5-21.3-12.8-31.3
				c-2.4-4.5-5.5-8.8-10.4-10.8c-5.1-2-11-1.4-16.4-2.3c-12.2-2-23.7-7.2-33.1-15.2c-0.8-0.7-1.8-0.5-2.4,0.3
				c-11.4,16.8-28,30-46.9,37.5c-18.5,7.3-38.9,9.4-58.5,6.1c-11-1.8-21.8-5.4-31.7-10.6c-1.7-0.9-3.2,1.7-1.5,2.6
				c18.2,9.5,39.1,13.6,59.5,12.2c20.6-1.5,40.7-8.6,57.3-20.9c9.5-7,17.7-15.6,24.4-25.4c-0.8,0.1-1.6,0.2-2.4,0.3
				c8.2,7,17.9,12,28.3,14.7c5.2,1.3,10.5,1.8,15.8,2.3c2.7,0.2,5.5,0.6,7.9,1.9c2.2,1.2,4,3.2,5.4,5.3c3,4.5,5.2,9.6,7.2,14.6
				c2.1,5.1,3.9,10.3,5.9,15.5c1.9,5.2,3.9,10.4,6.3,15.4c2.3,5,5.2,9.6,8.2,14.2c6,8.9,14.7,20.1,10.1,31.4c0.5-0.4,1-0.7,1.4-1.1
				c-21.1,1.9-42.2,3.4-63.3,4.4c-21.1,1-42.3,1.6-63.5,1.7c-21.1,0.1-42.2-0.2-63.2-1c-5.3-0.2-10.6-0.4-15.9-0.7
				c-3.8-0.2-7.7-0.4-11.4-1.2c-3.4-0.7-6.9-1.8-9.7-3.9c-3.2-2.3-4.9-5.8-5.4-9.6c-0.6-4.8-0.2-9.9,0-14.7
				c0.2-5.2,0.6-10.3,1.1-15.4c1-10.3,2.7-20.5,5-30.6c0.6-2.5,1.2-5,1.8-7.5C315.9,407.5,313,406.7,312.6,408.6L312.6,408.6z"/>
		</g>
	</g>
	<g class="st5">
		<path class="st9" d="M482.5,381.5c-7.1-17.3-14.3-34.5-21.4-51.8c-6.2-15.1-13.7-31.5-28.5-38.6c-18.2-8.6-39.7,0.5-56.4,11.8
			c-26,17.5-48.3,40.3-65.2,66.7c-6.2,9.6-11,23.9-2.2,31.2c3,2.5,6.9,3.4,10.8,4.1c27.9,4.9,57.5-1,81.4-16.2
			c9.9-6.4,19.2-14.4,30.6-17.5c18-4.9,36.7,3.7,53.4,12.1"/>
		<g>
			<path class="st7" d="M483.9,381.1c-7.2-17.4-14.3-34.7-21.5-52.1c-5.3-12.8-11.2-26.5-22.5-35.1c-5.9-4.6-13.1-7.1-20.6-7.5
				c-7.8-0.4-15.6,1.3-22.8,4.1c-14.9,5.7-28.2,15.5-40.4,25.7c-12.3,10.3-23.5,21.8-33.4,34.4c-4.9,6.2-9.6,12.6-13.7,19.3
				c-3.4,5.7-6.3,12.2-6.5,18.9c-0.3,6.8,2.9,12.8,9.3,15.6c3.5,1.5,7.4,2.1,11.1,2.6c4,0.6,8.1,0.9,12.2,1.1
				c16,0.6,32.2-2.2,47.1-8.1c7.5-3,14.6-6.7,21.3-11.1c6.7-4.4,13.1-9.4,20.3-13c7.5-3.8,15.7-5.1,24-4.3c8.6,0.9,16.9,4,24.8,7.4
				c3.9,1.7,7.8,3.6,11.6,5.5c1.7,0.9,3.2-1.7,1.5-2.6c-14.6-7.3-30.8-15.2-47.6-13.5c-8,0.8-15.3,4-22.1,8.3
				c-6.7,4.2-12.8,9-19.6,13c-13.5,7.9-28.7,12.9-44.2,14.7c-7.8,0.9-15.6,1-23.4,0.3c-3.9-0.4-7.8-0.9-11.6-1.7
				c-3.5-0.8-6.9-2.1-9.2-5c-3.8-4.9-2.7-11.8-0.8-17.2c2.3-6.7,6.4-12.6,10.5-18.4c9-12.8,19.3-24.6,30.6-35.3
				c5.7-5.3,11.6-10.4,17.9-15.1c6.2-4.8,12.7-9.3,19.6-13.1c13-7.2,29-12.8,43.6-7.4c13.2,4.9,20.9,17.8,26.5,30
				c3.4,7.4,6.3,15,9.4,22.5c3.5,8.6,7.1,17.1,10.6,25.7c1.7,4.1,3.4,8.2,5.1,12.4C481.7,383.7,484.6,382.9,483.9,381.1L483.9,381.1
				z"/>
		</g>
	</g>
	<g class="st5">
		<path class="st10" d="M291.4,388.4c-23.9,11.9-50,19.3-76.5,21.8c-5.7,0.5-11.5,0.8-16.9-1c-5.4-1.8-9.8-5.6-14.1-9.4
			c-12.2-10.6-25.1-22.4-28.2-38.3c-0.6-3.1-0.9-6.4-3.1-8.7c-3-3.1-8-2.5-12.3-1.7c-16.8,3.1-33.5,6.3-50.3,9.4
			c24.7-24,46.2-51.2,63.8-80.8c-5.8,2.2-11.5,4.4-17.3,6.6c14-9.5,30.2-15,46.3-20.5c7.2-2.4,14.4-4.9,21.9-6.1
			c23.2-3.7,46.4,4.9,67.9,14c8.7,3.7,17.6,7.7,23.7,14.9c10.4,12.2,10,29.9,9.1,45.9c-1.2,20.5-3.5,43.5-19.2,56.7"/>
		<g>
			<path class="st7" d="M290.7,387.1c-14.4,7.1-29.5,12.6-45.1,16.4c-7.8,1.9-15.7,3.4-23.6,4.4c-7.8,1-16.4,2.4-23.9-0.3
				c-3.5-1.3-6.6-3.5-9.5-5.8c-2.8-2.3-5.5-4.7-8.2-7.1c-5.2-4.6-10.3-9.5-14.5-15.1c-4.1-5.4-7.3-11.5-8.6-18.2
				c-0.6-3.2-1-6.5-3.1-9.1c-2.1-2.5-5.4-3.3-8.6-3.2c-3.7,0.1-7.3,1-10.9,1.7c-4.3,0.8-8.6,1.6-12.9,2.4
				c-8.5,1.6-17.1,3.2-25.6,4.8c-2.1,0.4-4.2,0.8-6.3,1.2c0.5,0.8,1,1.7,1.5,2.5c19.3-18.8,36.7-39.6,51.9-61.9
				c4.2-6.3,8.3-12.7,12.2-19.2c0.6-1-0.4-2.7-1.7-2.2c-5.8,2.2-11.5,4.4-17.3,6.6c0.4,0.9,0.8,1.8,1.2,2.7
				c8-5.4,16.8-9.6,25.8-13.1c9.1-3.6,18.4-6.8,27.8-9.8c4.8-1.5,9.7-2.9,14.7-3.6c4.9-0.7,9.9-0.9,14.9-0.6
				c10.2,0.6,20.1,3,29.8,6.2c9.3,3.1,18.5,6.8,27.4,10.9c7.9,3.6,15.6,8.2,20.3,15.7c4.4,7,5.9,15.4,6.4,23.5
				c0.4,8.3-0.1,16.6-0.8,24.8c-1.2,15.4-3.5,32.5-14.1,44.5c-1.3,1.5-2.7,2.8-4.2,4.1c-1.5,1.3,0.7,3.4,2.1,2.1
				c12.8-10.9,16.8-27.9,18.6-43.9c0.9-8.5,1.5-17.1,1.5-25.7c0-8.5-0.7-17.2-3.9-25.1c-1.6-4-3.8-7.6-6.7-10.8
				c-3-3.4-6.8-6.1-10.7-8.3c-3.9-2.3-8.1-4.1-12.3-5.9c-4.8-2.1-9.6-4.1-14.5-5.9c-19.4-7.3-40.2-12.2-60.7-7.3
				c-5.2,1.2-10.2,2.9-15.2,4.6c-4.7,1.6-9.4,3.2-14.1,4.9c-9.3,3.4-18.6,7.2-27.2,12.1c-2.1,1.2-4.2,2.5-6.3,3.9
				c-1.3,0.9-0.5,3.4,1.2,2.7c5.8-2.2,11.5-4.4,17.3-6.6c-0.6-0.7-1.1-1.5-1.7-2.2c-13.7,23-29.7,44.5-47.7,64.2
				c-5.1,5.6-10.4,11-15.8,16.3c-1.1,1.1,0.1,2.8,1.5,2.5c17-3.2,34.1-6.6,51.2-9.6c2.9-0.5,6.4-1,9,0.7c2.8,1.9,3,5.8,3.6,8.8
				c1.3,6.8,4.5,13,8.5,18.5c4.1,5.6,9.1,10.6,14.2,15.3c2.7,2.4,5.4,4.8,8.1,7.1c2.8,2.4,5.7,4.7,9,6.3c7.4,3.7,15.6,3.1,23.5,2.3
				c7.9-0.9,15.8-2.1,23.6-3.8c15.7-3.4,31-8.6,45.6-15.3c1.8-0.8,3.6-1.7,5.4-2.6C293.9,388.8,292.4,386.2,290.7,387.1L290.7,387.1
				z"/>
		</g>
	</g>
	<g class="st5">
		<path class="st11" d="M243,252.8c1-0.3,0,1.8-0.7,1c-0.7-0.8-0.1-2,0.6-2.8c15.3-20.4,13.8-48.3,11.7-73.7
			c-0.3-4.1-0.7-8.3-2.7-11.9c-1.7-3.1-4.5-5.5-6.8-8.2c-6.3-7.1-9.8-16.5-9.8-26c0-7.1,0.7-16.3-5.8-19
			c-32.6,37.7-40.3,91.2-68.1,132.6c-6.3,9.4-13.7,18.2-18.7,28.4c18.7-15.3,41.6-25.4,65.5-29.1c11.7-1.8,24.3-1.9,34.5,4.2"/>
		<g>
			<path class="st7" d="M243.4,254.2c-0.5-0.5-1-0.9-1.5-1.4c0-0.3,0.2-0.3,0.8,0c1,0.1,0.7,0.1,1-0.6c0.3-0.5,0.7-0.9,1-1.4
				c0.8-1.1,1.5-2.2,2.2-3.3c1.3-2.2,2.5-4.4,3.6-6.7c2-4.5,3.5-9.2,4.6-14.1c2.2-10.1,2.5-20.6,2.2-30.9c-0.2-5.3-0.5-10.6-1-15.8
				c-0.4-5.3-0.6-11.1-3.3-15.8c-1.3-2.3-3.2-4.3-5-6.2c-1.9-2-3.6-4-5.1-6.3c-2.8-4.4-4.7-9.3-5.6-14.5c-0.9-5.1-0.2-10.3-0.7-15.4
				c-0.5-4.4-1.9-9.1-6.4-11.1c-0.6-0.3-1.4-0.3-1.8,0.2c-15.3,17.8-25.3,39.2-34.3,60.8c-9,21.8-17.1,44.1-29.2,64.4
				c-7.4,12.3-17.2,23.2-23.6,36.1c-0.8,1.6,1,2.9,2.4,1.8c10.8-8.7,22.9-15.8,35.8-20.9c6.4-2.5,13.1-4.6,19.8-6.1
				c6.7-1.5,13.6-2.6,20.5-2.7c7.6-0.1,15.3,1.1,22,5c1.7,1,3.2-1.6,1.5-2.6c-12.5-7.3-27.9-6-41.5-3.3
				c-14.1,2.8-27.7,7.8-40.2,14.8c-7.1,3.9-13.8,8.5-20.1,13.6c0.8,0.6,1.6,1.2,2.4,1.8c5.7-11.6,14.4-21.5,21.3-32.4
				c6.2-9.9,11.4-20.4,16.2-31.1c9.5-21.4,17.1-43.7,27.8-64.6c5.9-11.6,12.8-22.7,21.3-32.6c-0.6,0.1-1.2,0.2-1.8,0.2
				c4,1.7,4.8,6.2,5,10.1c0.3,5-0.2,10,0.7,14.9c1,5.6,3.2,11,6.4,15.7c1.6,2.3,3.4,4.4,5.4,6.5c2,2.1,3.9,4.2,5,6.9
				c1.1,2.8,1.5,5.9,1.7,8.9c0.2,2.8,0.5,5.5,0.7,8.3c0.4,5.6,0.7,11.1,0.7,16.7c0.1,10.9-0.9,21.9-4.3,32.3
				c-1.9,5.7-4.6,11.1-8.2,16c-0.8,1.1-1.7,2.4-1.4,3.9c0.3,1.2,1.4,2.1,2.7,1.8c2.3-0.7,2.3-4.6-0.6-4
				C240.7,251.7,241.5,254.6,243.4,254.2L243.4,254.2z"/>
		</g>
	</g>
	<g class="st5">
		<path class="st12" d="M263,183.8c1.1,20.4-1.1,41.1-6.4,60.8c22.1,1,40.8,18.6,49.8,38.8s10.2,43,11.2,65.1
			c25.9-33.5,58-62.1,94.1-84.2c-8.9-35.8-24.4-70-45.5-100.3c-7.5,17.6-30,22.3-49.1,22.4c-17,0.1-34.1-1.4-50.8-4.7"/>
		<g>
			<path class="st7" d="M261.5,183.8c1.1,20.3-1.1,40.8-6.3,60.4c-0.3,1,0.5,1.9,1.4,1.9c15.5,0.8,29.1,9.9,38.6,21.8
				c11.1,13.8,16,31.2,18.4,48.5c1.5,10.7,2,21.4,2.5,32.2c0.1,1.2,1.7,2.2,2.6,1.1c10.1-13,21.1-25.3,32.9-36.7
				c11.8-11.5,24.4-22.1,37.7-31.8c7.5-5.5,15.3-10.6,23.2-15.5c0.6-0.4,0.9-1,0.7-1.7c-7-28.1-18-55.1-32.6-80.1
				c-4.1-7-8.5-13.9-13.1-20.5c-0.6-0.8-2.1-1.1-2.6,0c-4.7,11-15.6,16.7-26.7,19.3c-5.9,1.4-12,2.1-18,2.3
				c-8.1,0.3-16.3,0-24.4-0.7c-9.7-0.7-19.4-2-29-3.9c-1.9-0.4-2.7,2.5-0.8,2.9c17.3,3.3,35,5,52.6,4.7c12.2-0.2,25.4-2.1,36-8.6
				c5.7-3.5,10.4-8.4,13.1-14.6c-0.9,0-1.7,0-2.6,0c16.4,23.5,29.5,49.3,38.6,76.5c2.6,7.7,4.9,15.5,6.8,23.4
				c0.2-0.6,0.5-1.1,0.7-1.7c-14.1,8.6-27.7,18.3-40.5,28.8c-12.7,10.5-24.7,21.9-35.9,34.1c-6.3,6.9-12.3,14.1-18.1,21.5
				c0.9,0.4,1.7,0.7,2.6,1.1c-0.9-19.6-1.9-39.5-8.4-58.2c-5.4-15.6-15.1-29.9-29.1-39c-7.5-4.8-16.1-7.9-25-8.3
				c0.5,0.6,1,1.3,1.4,1.9c4.1-15.5,6.4-31.5,6.7-47.6c0.1-4.6,0-9.1-0.3-13.7C264.4,181.9,261.4,181.9,261.5,183.8L261.5,183.8z"/>
		</g>
	</g>
	<g class="st5">
		<path class="st13" d="M277.3,29.7c-11.4,17-22.3,34.3-32.6,51.9c-6.4,10.9-12.7,23.8-8.5,35.7c2.5,7.1,8.3,12.4,12.1,18.9
			c5.5,9.5,6.3,20.9,10.2,31.1c1,2.5,2.1,4.9,3.8,7c5.7,6.8,16.1,7.2,24.7,5.2s16.9-6.1,25.8-6.4c7-0.3,13.8,1.7,20.8,1.5
			s14.7-3.8,16.2-10.6c1-4.4-0.9-8.9-2.7-13.1c-7-15.8-14-31.6-21-47.4c-4.6-10.5-9.3-21.1-16-30.4c-11.2-15.6-28.5-28.7-30.8-47.8"
			/>
		<g>
			<path class="st7" d="M276,29c-8.6,12.8-16.9,25.9-24.9,39.1c-3.9,6.4-7.9,12.8-11.3,19.5c-3.2,6.2-5.9,12.8-6.4,19.8
				c-0.5,6.9,1.8,13,5.7,18.6c3.8,5.5,8.1,10.5,10.6,16.8c2.4,6.4,3.7,13.2,5.6,19.7c1.8,6.1,4.1,12.5,9.7,16.1
				c4.8,3.1,10.8,3.8,16.4,3.4c6.8-0.6,13.1-3.1,19.5-5c3.4-1,7-1.9,10.6-2.2c3.8-0.3,7.5,0.1,11.3,0.6c6.5,0.8,13.1,1.6,19.3-1
				c5.2-2.2,9.4-6.6,9.6-12.5c0.1-3.6-1.2-7.1-2.6-10.4c-1.6-3.6-3.2-7.2-4.8-10.8c-6.4-14.4-12.7-28.8-19.1-43.2
				c-3-6.6-6.1-13.2-9.9-19.4c-3.4-5.5-7.3-10.5-11.5-15.4c-7.6-8.9-16.4-17.7-20.7-28.9c-1-2.7-1.8-5.5-2.1-8.4
				c-0.2-1.9-3.2-1.9-3,0c1.5,11.7,8.3,21.4,15.7,30.2c3.8,4.5,7.7,8.8,11.4,13.3c4.2,5.2,7.8,10.7,11,16.6
				c3.4,6.3,6.2,12.8,9.1,19.3c3.1,7,6.2,14,9.3,21c3.2,7.1,6.3,14.3,9.5,21.4c2.5,5.7,7.1,13.2,3.4,19.3c-2.7,4.4-8.4,6.4-13.3,6.7
				c-7.4,0.4-14.6-1.9-22-1.4c-12.8,0.9-24.6,9.1-37.7,7.1c-2.6-0.4-5.2-1.2-7.4-2.6c-2.6-1.7-4.5-4.1-5.8-6.9
				c-2.8-5.9-4-12.5-5.7-18.8c-1.7-6.4-3.9-12.6-7.7-18.1c-3.6-5.2-8.3-10-10.2-16.2c-2-6.4-0.8-13.1,1.5-19.3
				c2.5-6.7,6.2-12.9,9.8-19c7.6-12.9,15.5-25.6,23.7-38.1c2-3.1,4.1-6.2,6.1-9.3C279.7,28.9,277.1,27.4,276,29L276,29z"/>
		</g>
	</g>
</g>
</svg>
