<?xml version="1.0" encoding="utf-8"?>
<!-- Generator: Adobe Illustrator 24.1.3, SVG Export Plug-In . SVG Version: 6.00 Build 0)  -->
<svg version="1.1" id="Layer_8" xmlns="http://www.w3.org/2000/svg" xmlns:xlink="http://www.w3.org/1999/xlink" x="0px" y="0px"
	 viewBox="0 0 563.9 518.6" style="enable-background:new 0 0 563.9 518.6;" xml:space="preserve">
<style type="text/css">
	.st0{fill:url(#SVGID_1_);}
</style>
<radialGradient id="SVGID_1_" cx="253.4089" cy="439.2772" r="221.2246" fx="215.0067" fy="455.5304" gradientTransform="matrix(0.8959 0.4443 -0.7055 1.4226 336.2807 -298.2307)" gradientUnits="userSpaceOnUse">
	<stop  offset="0.6078" style="stop-color:#4059AD"/>
	<stop  offset="0.6542" style="stop-color:#4D60A5"/>
	<stop  offset="0.7395" style="stop-color:#6F7291"/>
	<stop  offset="0.8543" style="stop-color:#A58F71"/>
	<stop  offset="0.993" style="stop-color:#F0B744"/>
	<stop  offset="1" style="stop-color:#F4B942"/>
</radialGradient>
<path class="st0" d="M307.1,400.3c-12.4-25.5-73.5,24.6-94.1,19.7c-47.5-13.6-64.9-56.9-69-64.9l0,0c-4,2-19.2,6-29.9,8.3l0,0
	c-5.9,1.4-14.7,2.2-25.3,2.7C67.7,399.9,25.1,480.4,14,497.2c27.9-0.5,58.2,0.1,83,0c7.4,0,36.2,0,41.6,0l0,0
	c9.3-0.2,15.4-0.1,34.6-0.2l0,0c9.8,0,132,0.2,146,0.5C307.9,465.2,319.5,425.8,307.1,400.3z"/>
</svg>
