<?xml version="1.0" encoding="utf-8"?>
<!-- Generator: Adobe Illustrator 24.1.2, SVG Export Plug-In . SVG Version: 6.00 Build 0)  -->
<svg version="1.1" id="Layer_9" xmlns="http://www.w3.org/2000/svg" xmlns:xlink="http://www.w3.org/1999/xlink" x="0px" y="0px"
	 viewBox="0 0 563.9 518.6" style="enable-background:new 0 0 563.9 518.6;" xml:space="preserve">
<style type="text/css">
	.st0{fill:url(#SVGID_1_);}
</style>
<linearGradient id="SVGID_1_" gradientUnits="userSpaceOnUse" x1="391.0189" y1="173.4618" x2="-22.873" y2="73.4507" gradientTransform="matrix(1 0 0 -1 0 526.9619)">
	<stop  offset="0.274" style="stop-color:#5699C0"/>
	<stop  offset="0.3293" style="stop-color:#669CB4"/>
	<stop  offset="0.5647" style="stop-color:#A7A782"/>
	<stop  offset="0.7629" style="stop-color:#D7AF5E"/>
	<stop  offset="0.9139" style="stop-color:#F4B447"/>
	<stop  offset="1" style="stop-color:#FFB63F"/>
</linearGradient>
<path class="st0" d="M307.1,400.3c-12.4-25.5-66.9,26.3-94.5,20.4c-53.8-11.5-64.5-57.6-68.6-65.6l0,0c-4,2-19.2,6-29.9,8.3l0,0c-5.9,1.4-14.7,2.2-25.3,2.7c-21.1,33.8-63.7,114.3-74.8,131.1c27.9-0.5,58.2,0.1,83,0c7.4,0,36.2,0,41.6,0l0,0c9.3-0.2,15.4-0.1,34.6-0.2l0,0c9.8,0,132,0.2,146,0.5C307.9,465.2,319.5,425.8,307.1,400.3z"
/>
</svg>
