<?xml version="1.0" encoding="utf-8"?>
<!-- Generator: Adobe Illustrator 24.1.3, SVG Export Plug-In . SVG Version: 6.00 Build 0)  -->
<svg version="1.1" id="Layer_1" xmlns="http://www.w3.org/2000/svg" xmlns:xlink="http://www.w3.org/1999/xlink" x="0px" y="0px"
	 viewBox="0 0 563.9 518.6" style="enable-background:new 0 0 563.9 518.6;" xml:space="preserve">
<style type="text/css">
	.st0{fill:#808080;}
	.st1{fill:url(#SVGID_1_);}
	.st2{fill:#DCA1C8;}
	.st3{fill:#FFFFFF;}
</style>
<path class="st0" d="M14.2,497.1c27.9-0.5,58.2,0.1,83,0c7.4,0,32.1-0.1,39.4,0"/>
<linearGradient id="SVGID_1_" gradientUnits="userSpaceOnUse" x1="101.1278" y1="79.5575" x2="-54.5234" y2="41.9465" gradientTransform="matrix(1 0 0 -1 0 520)">
	<stop  offset="0.274" style="stop-color:#5699C0"/>
	<stop  offset="0.3293" style="stop-color:#669CB4"/>
	<stop  offset="0.5647" style="stop-color:#A7A782"/>
	<stop  offset="0.7629" style="stop-color:#D7AF5E"/>
	<stop  offset="0.9139" style="stop-color:#F4B447"/>
	<stop  offset="1" style="stop-color:#FFB63F"/>
</linearGradient>
<path class="st1" d="M502.5,358.8c-17.6-4.3-100.7-76-108.7-98.1c-2.5-7.5-10-12.5-18.2-11.6c-9.4,1.1-16.2,9.5-15.2,19
	c0.3,2.7,1.2,5.1,2.5,7.2c12.1,20.3,25.2,118.6,2.9,163.4c-3.2,6.3-4.8,13.5-3.9,21.1c2.3,20.3,20.6,34.9,40.9,32.7
	c16.1-1.8,28.5-13.6,31.9-28.5c12.3-48.1,51.9-74.4,68.7-79.9c5.9-1.8,9.9-7.6,9.1-14C512.1,364.4,507.9,359.9,502.5,358.8z"/>
<circle class="st2" cx="377.6" cy="266.2" r="17.2"/>
<ellipse transform="matrix(0.1602 -0.9871 0.9871 0.1602 52.9877 805.4203)" class="st2" cx="499.8" cy="371.6" rx="13.1" ry="13.1"/>
<circle class="st2" cx="436.7" cy="405.6" r="13.1"/>
<circle class="st2" cx="398.9" cy="455.7" r="37"/>
<path class="st3" d="M443.7,331.8c0.7,9.8-28.6,38.2-38.3,38.9c-9.8,0.7-15-26.7-15.6-36.5s6.8-18.2,16.6-18.8
	C416.2,314.7,443.1,322,443.7,331.8z"/>
</svg>
