<?xml version="1.0" encoding="utf-8"?>
<!-- Generator: Adobe Illustrator 24.1.3, SVG Export Plug-In . SVG Version: 6.00 Build 0)  -->
<svg version="1.1" id="Layer_1" xmlns="http://www.w3.org/2000/svg" xmlns:xlink="http://www.w3.org/1999/xlink" x="0px" y="0px"
	 viewBox="0 0 563.9 518.6" style="enable-background:new 0 0 563.9 518.6;" xml:space="preserve">
<style type="text/css">
	.st0{fill:url(#SVGID_1_);}
	.st1{fill:#808080;}
	.st2{display:none;fill:#DCA1C8;}
	.st3{fill:#FFFFFF;}
</style>
<linearGradient id="SVGID_1_" gradientUnits="userSpaceOnUse" x1="149.4803" y1="479.2263" x2="9.0301" y2="513.1641">
	<stop  offset="0.274" style="stop-color:#5699C0"/>
	<stop  offset="0.3293" style="stop-color:#669CB4"/>
	<stop  offset="0.5647" style="stop-color:#A7A782"/>
	<stop  offset="0.7629" style="stop-color:#D7AF5E"/>
	<stop  offset="0.9139" style="stop-color:#F4B447"/>
	<stop  offset="1" style="stop-color:#FFB63F"/>
</linearGradient>
<path class="st0" d="M14.2,497.1c27.9-0.5,58.2,0.1,83,0c7.4,0,32.1-0.1,39.4,0"/>
<path class="st1" d="M498.3,384.5c-24.1-6.7-62.3,15-104.8,7.4c-7.2-0.7-46.1-9.8-51.2-21.3c-1.1-8.3-11-11.8-17.1-5
	c-3.5,3.9-2.8,11.7,3.5,14.9c9.1,4.6,5.5-11.8,45.8,13.7c5.4,3.4,15.8,11.4,21.1,17.4c8.7,9.7,13.4,12.9,23.1,28.6
	c14.3,23.3,21.7,51.8,57.2,57.9c42.8,6.1,58.6-27.8,61.9-33.3c8-12.9,5.7-38.4-2.9-53.5C531.1,404.5,517.2,390.1,498.3,384.5z"/>
<circle class="st2" cx="390.8" cy="288.3" r="15.5"/>
<circle class="st2" cx="501.1" cy="383.4" r="11.8"/>
<circle class="st2" cx="444.1" cy="414.1" r="11.8"/>
<circle class="st2" cx="410" cy="459.3" r="33.4"/>
<path class="st3" d="M450.5,347.5c0.6,8.8-25.8,34.5-34.6,35.1c-8.8,0.6-13.5-24.1-14.1-32.9s6.1-16.4,15-17
	C425.6,332.1,449.9,338.7,450.5,347.5z"/>
</svg>
