<?xml version="1.0" encoding="utf-8"?>
<!-- Generator: Adobe Illustrator 24.1.3, SVG Export Plug-In . SVG Version: 6.00 Build 0)  -->
<svg version="1.1" xmlns="http://www.w3.org/2000/svg" xmlns:xlink="http://www.w3.org/1999/xlink" x="0px" y="0px"
	 viewBox="0 0 563.9 518.6" style="enable-background:new 0 0 563.9 518.6;" xml:space="preserve">
<style type="text/css">
	.st0{fill:url(#SVGID_1_);}
	.st1{fill:url(#SVGID_2_);enable-background:new    ;}
	.st2{fill:url(#SVGID_3_);}
	.st3{fill:url(#SVGID_4_);}
	.st4{fill:url(#SVGID_5_);}
	.st5{fill:url(#SVGID_6_);}
</style>
<g id="clr-opt-1">
	
		<radialGradient id="SVGID_1_" cx="142.7444" cy="306.4474" r="103.7542" fx="82.809" fy="391.1391" gradientTransform="matrix(0.9983 -5.877106e-02 4.879535e-02 0.8288 -14.7065 60.845)" gradientUnits="userSpaceOnUse">
		<stop  offset="0" style="stop-color:#00016F"/>
		<stop  offset="0.1778" style="stop-color:#0F0B70"/>
		<stop  offset="0.3915" style="stop-color:#201772"/>
		<stop  offset="0.5055" style="stop-color:#2C2070"/>
		<stop  offset="0.5586" style="stop-color:#33256F"/>
		<stop  offset="0.9119" style="stop-color:#855160"/>
	</radialGradient>
	<path class="st0" d="M253.6,198.4c0.3-2.8-1.2-12.5-2.5-17.6c-1.1-4.3-2-9.3-2.6-11.3c-1-3.2-3-8.8-4-12.2
		c-1.4-5-7.4-31.7-15.6-39.8c-6.4,10.3-45.8,80.1-49.6,87.6c-2.7,5.3-8.7,15-12.6,22l0,0c-7,12.4-21.7,38.6-27.3,48.4l-6.4,11.6
		c-2.8,4.7-6.1,10.8-7.7,13.7c-1,1.7-2.8,4.7-7.1,12.3c-5.1,9.3-15.4,27.8-29.6,53l0.2,0.1c21.7,1,41.7-5.7,55.4-10.6
		c12.6-4.5,22.4-12.1,23.9-12.6c1.3-0.4,13.3-10.1,15.3-11.6c3.4-2.4,4.7-3.7,7.1-5.7c4.1-3.1,5.4-3.8,7.5-5.4
		c3-2.6,5.1-4.5,9.1-8.6c5.1-5,7.4-6.2,11.1-10.4c9.1-8.4,15.4-17.3,18.1-23.8c0.1-0.2,4-5.7,8.1-13.6c1.5-3.1,3.4-9.9,3.3-10
		c0,0,4.8-17.4,4.8-17.5c1.5-6.9,0.1-11,1.4-20.9c0,0,0,0,0,0C255.6,214.8,253.6,198.9,253.6,198.4z"/>
	<radialGradient id="SVGID_2_" cx="422.6585" cy="275.9113" r="133.53" gradientUnits="userSpaceOnUse">
		<stop  offset="0" style="stop-color:#00016F"/>
		<stop  offset="0.1778" style="stop-color:#0F0B70"/>
		<stop  offset="0.3915" style="stop-color:#201772"/>
		<stop  offset="0.5055" style="stop-color:#2C2070"/>
		<stop  offset="0.5586" style="stop-color:#33256F"/>
		<stop  offset="0.9119" style="stop-color:#855160"/>
	</radialGradient>
	<path class="st1" d="M357,154.3c-3.6-6.4-53.9-95.8-74.6-132.6l0,0c-15.8,28.2-48.1,82-53.4,94.9c13.5,24.8,37.6,98.5,14.6,145.9
		c3.5,5.5,25.7,29.1,38.4,30.9c11.3,0.5,39.8,43.7,40.8,47.8c7.6-1.3,15.6-9.8,18.6-12.5c3.2-2.8,9.1-8.8,19-16.1
		c9.8-6,14.3-8.9,21.5-14.5c28.8-18.5,35.4-15,48.5-13.7l0,0c-7.8-14.6-22.7-40.2-35.1-62.3c-3.4-6-15.7-28.2-20.1-35.7
		C369.7,176.8,357,154.3,357,154.3z"/>
	
		<radialGradient id="SVGID_3_" cx="163.5043" cy="388.0176" r="139.5202" fx="110.42" fy="382.3303" gradientTransform="matrix(0.9905 -0.1374 9.017298e-02 0.6503 -33.439 158.1542)" gradientUnits="userSpaceOnUse">
		<stop  offset="0" style="stop-color:#00016F"/>
		<stop  offset="0.1778" style="stop-color:#0F0B70"/>
		<stop  offset="0.3915" style="stop-color:#201772"/>
		<stop  offset="0.5055" style="stop-color:#2C2070"/>
		<stop  offset="0.5586" style="stop-color:#33256F"/>
		<stop  offset="0.9119" style="stop-color:#855160"/>
	</radialGradient>
	<path class="st2" d="M353.3,405c-0.8-3.7-15-8.4-20.3-27.6l0,0c-1.7-8.3-13.8-24.9-14.6-29.3c-1.5-7.7,8.8-2.5,0.7-16.2
		c-8.8-15-19.3-36.5-41.2-41.4c-14.3-8.2-31.7-25.6-34.4-28l0,0c-1.5,1.5-1.3,2.9-3.5,6c-3.5,5-7,14.9-13.1,22.4
		c-1.3,1.6-6.8,7.9-10.2,11c-7.5,7-8.9,8.4-16.3,14.5l0,0c-7.2,8.2-30.5,24-35.9,27.9c-19,14.9-28.2,2.1-17.3,23.4
		c12.1,23.7,34.2,44.5,53.7,51.7c22.6,8.3,47.1-7,55.7-11.3l0,0l0,0h0.6c0,1.1,14.1-6.5,15.1-7c12.7-6.7,13.8-3.2,22.5-4.8
		c9.5-1.8,18.3-0.4,22,0.3c0.6,0.1,4.2,0.6,5.2,0.8l0,0c1.4-0.2,10.9,3.1,13.8,3.4l0,0C341,401.4,346.4,405.8,353.3,405z"/>
	
		<radialGradient id="SVGID_4_" cx="115.2107" cy="424.9259" r="193.7009" fx="68.5459" fy="443.4514" gradientTransform="matrix(0.9992 3.900232e-02 -3.472989e-02 0.8898 14.8453 42.3421)" gradientUnits="userSpaceOnUse">
		<stop  offset="0" style="stop-color:#00016F"/>
		<stop  offset="0.1778" style="stop-color:#0F0B70"/>
		<stop  offset="0.3915" style="stop-color:#201772"/>
		<stop  offset="0.5055" style="stop-color:#2C2070"/>
		<stop  offset="0.5586" style="stop-color:#33256F"/>
		<stop  offset="0.9119" style="stop-color:#855160"/>
	</radialGradient>
	<path class="st3" d="M307.1,400.3c-12.4-25.5-66.9,26.3-94.5,20.4c-53.8-11.5-64.5-57.6-68.6-65.6l0,0c-4,2-19.2,6-29.9,8.3l0,0
		c-5.9,1.4-14.7,2.2-25.3,2.7C67.7,399.9,25.1,480.4,14,497.2c27.9-0.5,58.2,0.1,83,0c7.4,0,36.2,0,41.6,0l0,0
		c9.3-0.2,15.4-0.1,34.6-0.2l0,0c9.8,0,132,0.2,146,0.5C307.9,465.2,319.5,425.8,307.1,400.3z"/>
	
		<radialGradient id="SVGID_5_" cx="430.8015" cy="330.5388" r="128.5787" gradientTransform="matrix(1 0 0 1 0 -33.0381)" gradientUnits="userSpaceOnUse">
		<stop  offset="0" style="stop-color:#00016F"/>
		<stop  offset="0.1778" style="stop-color:#0F0B70"/>
		<stop  offset="0.2498" style="stop-color:#150F71"/>
		<stop  offset="0.3915" style="stop-color:#201772"/>
		<stop  offset="0.5055" style="stop-color:#2C2070"/>
		<stop  offset="0.5586" style="stop-color:#33256F"/>
		<stop  offset="0.9119" style="stop-color:#855160"/>
	</radialGradient>
	<path class="st4" d="M515,435.5c-8-14.4-74.1-132.4-84.7-151.1c-2.3-6.8-11.1-13.6-13.4-1.6c-21.7,0-40.5,18.9-47,22.7
		c-7.9,3.8-26,15.2-33,24.9c-46.5,18.9-2.5,56.5-34,65c13.4,25.8,2.1,81.6,16.4,102.3c20.7-0.1,76.1-0.2,94.8-0.4
		c14.2,0,23.8,0,28.4,0c4.7,0,43.3-0.3,62,0c6.2,0,33-0.4,45.4,0C542.4,484.3,517.7,439.8,515,435.5z"/>
</g>
<g id="Layer_8">
	
		<radialGradient id="SVGID_6_" cx="430.8015" cy="330.5388" r="128.5787" gradientTransform="matrix(1 0 0 1 0 -33.0381)" gradientUnits="userSpaceOnUse">
		<stop  offset="0" style="stop-color:#00016F"/>
		<stop  offset="0.1778" style="stop-color:#0F0B70"/>
		<stop  offset="0.2498" style="stop-color:#150F71"/>
		<stop  offset="0.3915" style="stop-color:#201772"/>
		<stop  offset="0.5055" style="stop-color:#2C2070"/>
		<stop  offset="0.5586" style="stop-color:#33256F"/>
		<stop  offset="0.9119" style="stop-color:#855160"/>
	</radialGradient>
	<path class="st5" d="M515,435.5c-8-14.4-74.1-132.4-84.7-151.1c-2.3-6.8-11.1-13.6-13.4-1.6c-21.7,0-40.5,18.9-47,22.7
		c-7.9,3.8-26,15.2-33,24.9c-46.5,18.9-2.5,56.5-34,65c13.4,25.8,2.1,81.6,16.4,102.3c20.7-0.1,76.1-0.2,94.8-0.4
		c14.2,0,23.8,0,28.4,0c4.7,0,43.3-0.3,62,0c6.2,0,33-0.4,45.4,0C542.4,484.3,517.7,439.8,515,435.5z"/>
</g>
</svg>
