<?xml version="1.0" encoding="utf-8"?>
<!-- Generator: Adobe Illustrator 24.1.3, SVG Export Plug-In . SVG Version: 6.00 Build 0)  -->
<svg version="1.1" id="Layer_1" opacity="0.7" xmlns="http://www.w3.org/2000/svg" xmlns:xlink="http://www.w3.org/1999/xlink"
	 x="0px" y="0px" viewBox="0 0 563.9 518.6" style="enable-background:new 0 0 563.9 518.6;" xml:space="preserve">
<style type="text/css">
	.st0{fill:url(#SVGID_1_);}
	.st1{display:none;fill:#DCA1C8;}
	.st2{fill:#FFFFFF;}
	.st3{fill:url(#SVGID_2_);}
	.st4{display:none;fill:#FFFFFF;}
</style>
<linearGradient id="SVGID_1_" gradientUnits="userSpaceOnUse" x1="149.4803" y1="479.2263" x2="9.0301" y2="513.1641">
	<stop  offset="0.274" style="stop-color:#5699C0"/>
	<stop  offset="0.3293" style="stop-color:#669CB4"/>
	<stop  offset="0.5647" style="stop-color:#A7A782"/>
	<stop  offset="0.7629" style="stop-color:#D7AF5E"/>
	<stop  offset="0.9139" style="stop-color:#F4B447"/>
	<stop  offset="1" style="stop-color:#FFB63F"/>
</linearGradient>
<path class="st0" d="M14.2,497.1c27.9-0.5,58.2,0.1,83,0c7.4,0,32.1-0.1,39.4,0"/>
<circle class="st1" cx="390.8" cy="288.3" r="15.5"/>
<circle class="st1" cx="501.1" cy="383.4" r="11.8"/>
<circle class="st1" cx="444.1" cy="414.1" r="11.8"/>
<circle class="st1" cx="410" cy="459.3" r="33.4"/>
<path class="st2" d="M450.5,347.5c0.6,8.8-25.8,34.5-34.6,35.1c-8.8,0.6-13.5-24.1-14.1-32.9s6.1-16.4,15-17
	C425.6,332.1,449.9,338.7,450.5,347.5z"/>
<linearGradient id="SVGID_2_" gradientUnits="userSpaceOnUse" x1="-12.5546" y1="-16.9631" x2="-220.8617" y2="-67.2976" gradientTransform="matrix(1 0 0 -1 0 526.9619)">
	<stop  offset="0.274" style="stop-color:#5699C0"/>
	<stop  offset="0.3293" style="stop-color:#669CB4"/>
	<stop  offset="0.5647" style="stop-color:#A7A782"/>
	<stop  offset="0.7629" style="stop-color:#D7AF5E"/>
	<stop  offset="0.9139" style="stop-color:#F4B447"/>
	<stop  offset="1" style="stop-color:#FFB63F"/>
</linearGradient>
<path class="st3" d="M515,435.5c-8-14.4-42-74.7-52.6-93.4c-2.3-6.8-8.3,9.4-10.6,21.4c-1.1,9-3,11.1-9.5,14.9
	c-7.9,3.8-14.1,22.9-17.6,23.1c-49.9,44.2-105.3,15.8-120.6-5.3c17.3,24.9,2.9,68.2,15.2,101.4c20.6-0.5,76.2,0,94.8-0.4
	c14.2,0,23.8,0,28.4,0c4.7,0,43.3-0.3,62,0c6.2,0,33-0.4,45.4,0C542.4,484.3,517.7,439.8,515,435.5z"/>
<circle class="st1" cx="390.8" cy="288.3" r="15.5"/>
<ellipse transform="matrix(0.1602 -0.9871 0.9871 0.1602 42.3834 816.6157)" class="st1" cx="501.1" cy="383.4" rx="11.8" ry="11.8"/>
<circle class="st1" cx="444.1" cy="414.1" r="11.8"/>
<circle class="st1" cx="410" cy="459.3" r="33.4"/>
<path class="st4" d="M450.5,347.5c0.6,8.8-25.8,34.5-34.6,35.1c-8.8,0.6-13.5-24.1-14.1-32.9s6.1-16.4,15-17
	C425.6,332.1,449.9,338.7,450.5,347.5z"/>
</svg>
