<?xml version="1.0" encoding="utf-8"?>
<!-- Generator: Adobe Illustrator 24.1.2, SVG Export Plug-In . SVG Version: 6.00 Build 0)  -->
<svg version="1.1" id="Layer_9" xmlns="http://www.w3.org/2000/svg" xmlns:xlink="http://www.w3.org/1999/xlink" x="0px" y="0px"
	 viewBox="0 0 563.9 518.6" style="enable-background:new 0 0 563.9 518.6;" xml:space="preserve">
<style type="text/css">
	.st0{opacity:0.58;fill:url(#SVGID_1_);}
</style>
<linearGradient id="SVGID_1_" gradientUnits="userSpaceOnUse" x1="-24.7051" y1="543.1212" x2="-234.455" y2="593.8043" gradientTransform="matrix(1 0 0 1 0 -33.0381)">
	<stop  offset="0.274" style="stop-color:#5699C0"/>
	<stop  offset="0.3293" style="stop-color:#669CB4"/>
	<stop  offset="0.5647" style="stop-color:#A7A782"/>
	<stop  offset="0.7629" style="stop-color:#D7AF5E"/>
	<stop  offset="0.9139" style="stop-color:#F4B447"/>
	<stop  offset="1" style="stop-color:#FFB63F"/>
</linearGradient>
<path class="st0" d="M515,435.5c-8-14.4-74.1-132.4-84.7-151.1c-2.3-6.8-11.1-13.6-13.4-1.6c-21.7,0-40.5,18.9-47,22.7
	c-7.9,3.8-26,15.2-33,24.9c-46.5,18.9-2.5,56.5-34,65c13.4,25.8,2.1,81.6,16.4,102.3c20.7-0.1,76.1-0.2,94.8-0.4
	c14.2,0,23.8,0,28.4,0c4.7,0,43.3-0.3,62,0c6.2,0,33-0.4,45.4,0C542.4,484.3,517.7,439.8,515,435.5z"/>
</svg>
