<?xml version="1.0" encoding="utf-8"?>
<!-- Generator: Adobe Illustrator 24.1.2, SVG Export Plug-In . SVG Version: 6.00 Build 0)  -->
<svg version="1.1" id="Layer_1" opacity="0.7" xmlns="http://www.w3.org/2000/svg" xmlns:xlink="http://www.w3.org/1999/xlink"
	 x="0px" y="0px" viewBox="0 0 563.9 518.6" style="enable-background:new 0 0 563.9 518.6;" xml:space="preserve">
<style type="text/css">
	.c0{fill:#97A0A0;}
	.c1{fill:#EFCC5E;}
</style>
<path class="c0" d="M374.8,364.6c-1.5-8-8.3-13.7-16-14.2l0,0c-6.2-0.4-13.4-3.8-11.9-27.3c0.4-5.7,0.1-11.6-1-17.5
	c-4.5-24.1-21.3-42.7-42.7-50.7c-33.4-12.6-30.1-27.5-26.8-36.3l0,0c1.1-2.9,1.5-6.1,0.8-9.4c-1.8-9.5-10.9-15.8-20.5-14
	c-9.5,1.8-15.8,10.9-14,20.5c0.6,3.3,2.1,6.1,4.2,8.5l0,0c6.2,7,14.7,19.7-11.8,43.5c-17,15.2-26,38.6-21.4,62.7
	c6,32.1,34,54.6,65.5,54.9c33.3,0.4,35.6,13.9,35.5,22.6c0,0,0,0.1,0,0.1c0,0,0,0,0,0l0,0c0,1.1,0.1,2.3,0.3,3.4
	c1.8,9.5,10.9,15.8,20.5,14c9.5-1.8,15.8-10.9,14-20.5c0-0.2-0.1-0.5-0.2-0.7l0,0c-2.6-11.2,1-16.9,12.2-19.4l0,0
	C370.6,382.8,376.6,373.9,374.8,364.6z"/>
<ellipse transform="matrix(0.998 -6.288726e-02 6.288726e-02 0.998 -12.8485 16.7731)" class="c1" cx="260" cy="212.5" rx="17.5" ry="17.5"/>
<circle class="c1" cx="279.8" cy="318" r="67.3"/>
<circle class="c1" cx="357.6" cy="367.8" r="17.5"/>
<circle class="c1" cx="332.2" cy="408.3" r="17.5"/>
</svg>
