<?xml version="1.0" encoding="utf-8"?>
<!-- Generator: Adobe Illustrator 24.1.2, SVG Export Plug-In . SVG Version: 6.00 Build 0)  -->
<svg version="1.1" id="Layer_1" xmlns="http://www.w3.org/2000/svg" xmlns:xlink="http://www.w3.org/1999/xlink" x="0px" y="0px"
	 viewBox="0 0 563.9 518.6" style="enable-background:new 0 0 563.9 518.6;" xml:space="preserve">
<style type="text/css">
	.st0{fill:#97A0A0;}
	.st1{display:none;fill:#EFCC5E;}
</style>
<path class="st0" d="M342.7,328c-15.2-33.7-42.5-32.9-50.3-33.5l0,0c-6.2-0.4-30.7,6-41.7,22.8c-5.3,4.5-15.9,18.4-20.9-0.5
	c0.6-22.5-6.8-31.1-24.5-45.6c-38.2-31.3-4.7-44.5-3.6-52.7l0,0c1.1-2.9,1.6-6,1-9.3c-1.8-9.5-10.9-15.8-20.5-14
	c-9.5,1.8-15.8,10.9-14,20.5c0.6,3.3,2.1,6.1,4.2,8.5l0,0c4.8,4.3,24.4,21-2.1,43.9c-23.6,18.4-39,39.8-18.4,70.8
	c10.3,15.1,38.9,26,62.5,6.9c15.6-15.5,21.1-22.6,26.5-1.8c0.9,4.4,0.1,30.6,22.4,45.6c0,0,0,0,0,0l0,0c1.6,2.2,18.7,10.9,30.6,9.8
	c11.8,0,19.3-3.6,25.1-6.4c3.3-1.7,6.7-4.2,8.7-6c0.2-0.2,0.6-0.5,1-0.9l0,0c5.9-4.8,10.7-12.9,11.3-14.3l0,0
	C349,357,346.2,336.7,342.7,328z"/>
<ellipse transform="matrix(0.998 -6.288726e-02 6.288726e-02 0.998 -12.8485 16.7731)" class="st1" cx="260" cy="212.5" rx="17.5" ry="17.5"/>
<circle class="st1" cx="279.8" cy="318" r="67.3"/>
<circle class="st1" cx="357.6" cy="367.8" r="17.5"/>
<circle class="st1" cx="332.2" cy="408.3" r="17.5"/>
</svg>
