<?xml version="1.0" encoding="utf-8"?>
<!-- Generator: Adobe Illustrator 24.1.2, SVG Export Plug-In . SVG Version: 6.00 Build 0)  -->
<svg version="1.1" id="Layer_2" xmlns="http://www.w3.org/2000/svg" xmlns:xlink="http://www.w3.org/1999/xlink" x="0px" y="0px"
	 viewBox="0 0 563.9 518.6" style="enable-background:new 0 0 563.9 518.6;" xml:space="preserve">
<style type="text/css">
	.st0{opacity:0.27;fill:#0000F2;}
</style>
<path class="st0" d="M326.7,364.6c-2-3.3-6.1-10.6-9.6-15l0,0c-2.7-3.2-12-10.7-14.2-11.5c-8.3-6.5-23.3-9.3-30.6-11.5
	c-9.5-2.9-20.8-8.6-24.9-11.6c-16.3-14.6-16.9-16.8-24.5-21.9l0,0c-4.3,8.1-15.6,19.4-19.3,23.3c-8.1,7.6-19.2,16.6-23.4,19
	c-4.8,2.7-11.9,11.3-36.2,19.7c0.6,3.3,6.7,18.4,8.8,20.8l0.1,0.2c4.6,8,6.6,13,17.5,23.6c7.7,7.8,27.8,20.7,43.3,21.6
	c25.2,2.5,54.5-22.9,71.9-26.3c15.4-5.2,22.8,4.4,24.4,12.8l0.5,2.2l0.8,3.6l0.2,1.1c0,1.1,2.2,50.4,2.4,51.5
	c0.6,10.2,2.2,22.1,5.4,31.4c9.7-0.2,31.9-0.4,37.1-0.4c-13.9-21.3,20.8-58,7.7-84.8l0,0c-9.2-7-10.5-6.5-13.5-9.6l0,0
	C340.5,397.2,331.4,375.9,326.7,364.6z"/>
</svg>
