<?xml version="1.0" encoding="utf-8"?>
<!-- Generator: Adobe Illustrator 24.1.3, SVG Export Plug-In . SVG Version: 6.00 Build 0)  -->
<svg version="1.1" id="Layer_1" xmlns="http://www.w3.org/2000/svg" xmlns:xlink="http://www.w3.org/1999/xlink" x="0px" y="0px"
	 viewBox="0 0 160.5 135.6" style="enable-background:new 0 0 160.5 135.6;" xml:space="preserve">
<style type="text/css">
	.st0{display:none;}
	.st1{display:inline;}
	.st2{display:inline;opacity:0.18;fill:#1200FF;enable-background:new    ;}
</style>
<g id="cell1">
	<path d="M48.3,12.1c-0.5,32.8,0,44.1,0,65c0,12.9,0.1,35.7,0,45.7c0,1.3,35.8,0.1,47.9,0.1c8.9,0,16.1,0,16.1,0
		c-11.2-19.5-21.1-36.5-31.1-53.9C78.3,64,68.2,46.5,62.8,37.2C54.9,23.5,60.6,33.1,48.3,12.1z"/>
</g>
<g id="cell1_x5F_c" class="st0">
	<path class="st1" d="M87.5,20.4L60.6,66.9l-27.8,48.4l36.4-0.1l58.6-0.4V20.5H106H87.5V20.4z"/>
</g>
<g id="cell2" class="st0">
	<path class="st1" d="M101.7,22.4c-14.2-11.5-50.1-3.3-64.9,20.4c-10.7,17.1-10.5,42.6-0.4,48.9c9.3,5.7,22.4-7.2,31.9-0.4
		c8.4,6.1,2,19.3,9.3,24.8c12.4,9.4,54-12.3,54.1-33c0-8.3-6.5-9.3-15.9-27.4C105.2,35.4,109.1,28.4,101.7,22.4z"/>
</g>
<g id="cell2_x5F_c" class="st0">
	<path class="st1" d="M54.6,20.4H32.8v94.3l58.6,0.4l36.4,0.1L99.9,66.9L73,20.4H54.6z"/>
</g>
<g id="Layer_5" class="st0">
	<polygon class="st2" points="116.8,-48.3 21.3,117.1 212.3,117.1 	"/>
</g>
</svg>
