<svg id="shape_2" data-name="shape 2" xmlns="http://www.w3.org/2000/svg" viewBox="0 0 52.27 77.19"><path d="M44.18,63.25c-2.89,3.61-2.47,7-2.08,9.66.46,3.1,3.61,10.36,7.5,15.66s3.32,4.76,7,8.64c1.84,1.94,3.56,4.76,10.33,7.65,3.77,1.61,7,1.78,8.89,1.3,6.6-1.72,11.21-7.9,13.88-16.08,2.6-8,1.78-3.91,3.57-13.6a37.22,37.22,0,0,0,.7-9.33c0-3.11.22-7.24,0-10.05-.46-6.12-3.17-12.18-4.15-14.84-1.16-3.18-6.2-12.66-14.42-13-4.61-.19-7.12,0-11,2.22s-8.41,8-.16,17.65c6.29,7.34,3.16,9.62-1.24,10.86C59.08,61.11,49.32,56.83,44.18,63.25Z" transform="translate(-41.82 -29.21)"/></svg>