<?xml version="1.0" encoding="utf-8"?>
<!-- Generator: Adobe Illustrator 24.1.2, SVG Export Plug-In . SVG Version: 6.00 Build 0)  -->
<svg version="1.1" id="Layer_1" xmlns="http://www.w3.org/2000/svg" xmlns:xlink="http://www.w3.org/1999/xlink" x="0px" y="0px"
	 viewBox="0 0 563.9 518.6" style="enable-background:new 0 0 563.9 518.6;" xml:space="preserve">
<style type="text/css">
	.st0{display:none;fill:#EFCC5E;}
	.st1{opacity:0.46;fill:#5D43EF;}
</style>
<ellipse transform="matrix(0.998 -6.288726e-02 6.288726e-02 0.998 -12.8485 16.7731)" class="st0" cx="260" cy="212.5" rx="17.5" ry="17.5"/>
<circle class="st0" cx="279.8" cy="318" r="67.3"/>
<circle class="st0" cx="357.6" cy="367.8" r="17.5"/>
<circle class="st0" cx="332.2" cy="408.3" r="17.5"/>
<path class="st1" d="M435.3,283.2c-15.1-14.7-37.1-17.9-55.1-9.8c-17.5,7.3-20.4,2.5-21.2,1.1c-0.1-0.2-0.3-0.4-0.5-0.6
	c-1.1-1.1-2.8-1-3.9,0.1c-1.1,1.1-1,2.8,0.1,3.9c0.2,0.2,0.4,0.4,0.7,0.5c1.4,0.8,6.2,3.6-0.6,21.3c-7.6,18.3-3.9,40.2,11.2,54.9
	c19.7,19.2,51.2,18.8,70.4-0.9C455.4,333.9,455,302.4,435.3,283.2z"/>
</svg>
