<?xml version="1.0" encoding="utf-8"?>
<!-- Generator: Adobe Illustrator 24.1.2, SVG Export Plug-In . SVG Version: 6.00 Build 0)  -->
<svg version="1.1" id="Layer_1" xmlns="http://www.w3.org/2000/svg" xmlns:xlink="http://www.w3.org/1999/xlink" x="0px" y="0px"
	 viewBox="0 0 563.9 518.6" style="enable-background:new 0 0 563.9 518.6;" xml:space="preserve">
<style type="text/css">
	.st0{opacity:0.46;fill:#5D43EF;enable-background:new    ;}
</style>
<path class="st0" d="M475.7,261.7c-11.7-11.5-29.7-16-52.2-8.8c-29.1,3.6-6.1-19.3-6.7-37.9c0-4.1-1.4-12-5.2-18
	c-2.5-4-10.5-15.3-25.9-17.7c-27.4-3.5-38.2,17.6-39,19c-3.3,5.6-5.5,16.2-4,24.3c16.6,61.9,84.8,0.2,59.3,52.3
	c-7.5,18.4-4.2,39.8,4.6,49.3c15.3,22.4,51.8,26.1,73,1.8C493.6,310.8,495.4,280.9,475.7,261.7z"/>
</svg>
