<?xml version="1.0" encoding="utf-8"?>
<!-- Generator: Adobe Illustrator 24.1.2, SVG Export Plug-In . SVG Version: 6.00 Build 0)  -->
<svg version="1.1" id="Layer_8" xmlns="http://www.w3.org/2000/svg" xmlns:xlink="http://www.w3.org/1999/xlink" x="0px" y="0px"
	 viewBox="0 0 563.9 518.6" style="enable-background:new 0 0 563.9 518.6;" xml:space="preserve">
<style type="text/css">
	.st0{opacity:0.5;fill:#31ECFF;enable-background:new    ;}
</style>
<path class="st0" d="M450.5,320.9c-2.1-3.8-9-16-11.2-20.3c-2.8-5.1-5.8-10.4-8.6-15c0-4.1-21.6-3.9-29.7,1.4
	c-3.4,2-11.2,6.1-21.2,12.4c-14.3,8.9-30.7,19.6-39.8,30c-7.8,9.5-24.4,11.7-22.9,19.8c16.8,19.5,12.8,38.9,37.7,56.7
	c16.2,10.9,26.5,10.1,41.5,10.1c38.3-8.3,38.2-26.3,59.4-50.6C469.7,350.2,464.2,345.2,450.5,320.9z"/>
</svg>
