<?xml version="1.0" encoding="utf-8"?>
<!-- Generator: Adobe Illustrator 24.1.2, SVG Export Plug-In . SVG Version: 6.00 Build 0)  -->
<svg version="1.1" id="Layer_1" xmlns="http://www.w3.org/2000/svg" xmlns:xlink="http://www.w3.org/1999/xlink" x="0px" y="0px"
	 viewBox="0 0 255.8 156.6" style="enable-background:new 0 0 255.8 156.6;" xml:space="preserve">
<style type="text/css">
	.st0{fill:url(#SVGID_1_);}
</style>
<linearGradient id="SVGID_1_" gradientUnits="userSpaceOnUse" x1="153.6336" y1="41.4479" x2="114.1576" y2="109.8222" gradientTransform="matrix(1 0 0 -1 0 158)">
	<stop  offset="0" style="stop-color:#D3D1A1"/>
	<stop  offset="1" style="stop-color:#65C8D0"/>
</linearGradient>
<path class="st0" d="M101,118.6c0,1.3,10.3,0,13,0c13,0,31,0,36,0c6-5,9-8,16-15c0-11,1-45,0-59c-18-1-37-1-44-1c0,0-21,22-21,22
	c0,6,0,13.4,0,15.6c0,4.2,0,13.5,0,19.4C101,101.5,101,117.6,101,118.6z"/>
</svg>
