<?xml version="1.0" encoding="utf-8"?>
<!-- Generator: Adobe Illustrator 24.1.2, SVG Export Plug-In . SVG Version: 6.00 Build 0)  -->
<svg version="1.1" xmlns="http://www.w3.org/2000/svg" xmlns:xlink="http://www.w3.org/1999/xlink" x="0px" y="0px"
	 viewBox="0 0 563.9 518.6" style="enable-background:new 0 0 563.9 518.6;" xml:space="preserve">
<style type="text/css">
	.e0{fill:#DCA1C8;}
	.e1{fill:#514C50;}
</style>

	<path class="e0" d="M445.1,63.8c-2.3,2-3.7,4.6-4.2,7.3l0-0.1c-1.8,10-13,21.9-21.4,29.2c-8.3,6.9-21.2,15.6-31.3,16.3
		c-3.1-0.2-6.2,0.8-8.8,2.9c-5.2,4.4-5.8,12.2-1.4,17.5c4.4,5.2,12.2,5.8,17.5,1.4c2.5-2.2,4-5.1,4.3-8.2c2.4-9.8,13-21.1,21.2-28.2
		c8.6-7.1,22.1-16.2,32.3-16.4l0-0.1c2.8,0,5.6-1,7.9-2.9c5.2-4.4,5.8-12.2,1.4-17.5C458.2,60,450.3,59.4,445.1,63.8z"/>
	<circle class="e1" cx="453.2" cy="73.2" r="12.4"/>
	<circle class="e1" cx="387.5" cy="129" r="12.4"/>

</svg>
