<?xml version="1.0" encoding="utf-8"?>
<!-- Generator: Adobe Illustrator 24.1.2, SVG Export Plug-In . SVG Version: 6.00 Build 0)  -->
<svg version="1.1" id="Layer_8" xmlns="http://www.w3.org/2000/svg" xmlns:xlink="http://www.w3.org/1999/xlink" x="0px" y="0px"
	 viewBox="0 0 563.9 518.6" style="enable-background:new 0 0 563.9 518.6;" xml:space="preserve">
<style type="text/css">
	.st0{opacity:0.85;}
	.st1{fill:#2500FF;}
</style>
<g class="st0">
	<path class="st1" d="M358.2,157.2c-4.2-1-10.5-3.3-14.6-3.8l0,0c-12.9-1.5-16.3-2.6-24.6,4.8c-6.1,5.5-7.2,16.9-2.1,23.5
		c3.5,5.5,9.8,10.2,15.8,9.5c16.8,3.7,13.8,12.9,14.8,17c1.6,6.6,1.8,14.7,5.6,14.7c4.2,0,5-10.9,5.3-14c0-6.8,1-12.7,5.2-17.9
		c7-5.5,7.9-3.3,18.1-3.5l0,0c9.5,3.6,26.7-11.7,2.7-22.7c-6.2-2.9-9.9-3.3-18-5.3C364,159,358.2,157.2,358.2,157.2z"/>
</g>
</svg>
