<?xml version="1.0" encoding="utf-8"?>
<!-- Generator: Adobe Illustrator 24.1.2, SVG Export Plug-In . SVG Version: 6.00 Build 0)  -->
<svg version="1.1" id="Layer_9" xmlns="http://www.w3.org/2000/svg" xmlns:xlink="http://www.w3.org/1999/xlink" x="0px" y="0px"
	 viewBox="0 0 563.9 518.6" style="enable-background:new 0 0 563.9 518.6;" xml:space="preserve">
<style type="text/css">
	.st0{opacity:0.58;fill:#2500FF;}
</style>
<path class="st0" d="M346.8,182.2c-4.9-2.1-48-25.5-73.4-9.9l0,0c-22,18.3-2.2,28.5-3.7,39.6c-1.3,10,3.7,8.4-26.2,50.6
	c3.5,5.5,25.7,29.1,38.4,30.9c11.3,0.5,39.8,43.7,40.8,47.8c7.6-1.3,15.6-9.8,18.6-12.5c3.2-2.8,9.1-8.8,19-16.1
	c9.8-6,14.3-8.9,21.5-14.5c28.8-18.5,35.4-15,48.5-13.7l0,0c-7.8-14.6-22.7-40.2-35.1-62.3c-3.4-6-15.7-28.2-20.1-35.7
	C357.1,187,346.8,182.2,346.8,182.2z"/>
</svg>
