<?xml version="1.0" encoding="utf-8"?>
<!-- Generator: Adobe Illustrator 24.1.3, SVG Export Plug-In . SVG Version: 6.00 Build 0)  -->
<svg version="1.1" id="Layer_8" xmlns="http://www.w3.org/2000/svg" xmlns:xlink="http://www.w3.org/1999/xlink" x="0px" y="0px"
	 viewBox="0 0 563.9 518.6" style="enable-background:new 0 0 563.9 518.6;" xml:space="preserve">
<style type="text/css">
	.st0{fill:url(#SVGID_1_);}
</style>
<radialGradient id="SVGID_1_" cx="323.2179" cy="275.3949" r="356.1194" fx="295.3776" fy="302.4243" gradientTransform="matrix(0.9265 0.3764 -0.2792 0.6872 100.6646 -35.5194)" gradientUnits="userSpaceOnUse">
	<stop  offset="0.3162" style="stop-color:#4059AD"/>
	<stop  offset="1" style="stop-color:#F4B942"/>
</radialGradient>
<path class="st0" d="M357,154.3c-3.6-6.4-53.9-95.8-74.6-132.6l0,0c-15.8,28.2-46.4,82.4-53.4,94.9c12.7,25.6,37.6,98.5,14.6,145.9
	c3.5,5.5,25.7,29.1,38.4,30.9c11.3,0.5,39.8,43.7,40.8,47.8c7.6-1.3,15.6-9.8,18.6-12.5c3.2-2.8,9.1-8.8,19-16.1
	c9.8-6,14.3-8.9,21.5-14.5c28.8-18.5,35.4-15,48.5-13.7l0,0c-7.8-14.6-22.7-40.2-35.1-62.3c-3.4-6-15.7-28.2-20.1-35.7
	C369.7,176.8,357,154.3,357,154.3z"/>
</svg>
