<?xml version="1.0" encoding="utf-8"?>
<!-- Generator: Adobe Illustrator 24.1.2, SVG Export Plug-In . SVG Version: 6.00 Build 0)  -->
<svg version="1.1" id="Layer_8" xmlns="http://www.w3.org/2000/svg" xmlns:xlink="http://www.w3.org/1999/xlink" x="0px" y="0px"
	 viewBox="0 0 563.9 518.6" style="enable-background:new 0 0 563.9 518.6;" xml:space="preserve">
<style type="text/css">
	.st0{opacity:0.87;fill:#285428;}
	.st1{display:none;fill:#DCA1C8;}
</style>
<path class="st0" d="M255.6,197.3c5.9-6,5.7-15.7-0.3-21.6c-3.5-3.4-8.5-4.3-10.6-4.3c-4.2,0-7.2,1.6-10,3.7
	c-5.1,3.8,5.1-42.5-3.1-50.6c-6-5.9-46.3,74.6-52.2,80.7c-3.5,3.6-13.5,14.9-12.8,19.5l0,0c2.4,15.1-20.2,43.7-35.2,46.1l0,0
	c-3.2,0.5-21.8,19.9-24.2,22.4c-5.9,6-5.7,10.9,0.4,16.8c3,2.9-29.7,47.3-25.8,47.3l0,0c15.3-0.2,43.4,0,59.1-2.1
	c12.8-2,24-15.3,27.2-12.1c5.9,5.7,15.3,5.6,21.1-0.3c2.2-2.3,3.6-5.2,4-8.1c0.8-5.5,4.1-8.2,9.4-7.6c5.6,2.5,12.3,1.5,16.8-3.2
	c5-5.1,5.5-12.9,1.7-18.6c-6.3-13.4-2.8-23.2,10.5-29.8c0.2-0.1,6.9-2.6,8.6-11.1c1.1-6-1.9-10.6-2-10.7c0,0,12.1-21,12.1-21
	c-7.5-13.2-11.2-24.8,1.7-32.7c0,0,1.5-1.4,1.5-1.4C255.3,197.7,255.2,197.6,255.6,197.3z"/>
<ellipse transform="matrix(0.8433 -0.5375 0.5375 0.8433 -118.4897 62.8743)" class="st1" cx="48.6" cy="234.6" rx="15.3" ry="15.3"/>
<ellipse transform="matrix(0.3698 -0.9291 0.9291 0.3698 -65.7913 197.1453)" class="st1" cx="112.4" cy="147.1" rx="15.3" ry="15.3"/>
<ellipse transform="matrix(0.7071 -0.7071 0.7071 0.7071 -154.8951 182.2092)" class="st1" cx="142.5" cy="278.1" rx="14.9" ry="14.9"/>
<circle class="st1" cx="178.4" cy="151.3" r="15.3"/>
<ellipse transform="matrix(0.7071 -0.7071 0.7071 0.7071 -113.3519 178.7258)" class="st1" cx="159.1" cy="226.2" rx="15.3" ry="15.3"/>
<ellipse transform="matrix(0.8031 -0.5959 0.5959 0.8031 -154.8964 125.3602)" class="st1" cx="112.2" cy="297" rx="14.9" ry="14.9"/>
<circle class="st1" cx="126.3" cy="219.1" r="15.3"/>
<circle class="st1" cx="138" cy="244.7" r="11.7"/>
<circle class="st1" cx="137.9" cy="198.8" r="5.6"/>
<circle class="st1" cx="133.1" cy="153.4" r="5.6"/>
<circle class="st1" cx="128.7" cy="162.8" r="3.5"/>
</svg>
