<?xml version="1.0" encoding="utf-8"?>
<!-- Generator: Adobe Illustrator 24.1.2, SVG Export Plug-In . SVG Version: 6.00 Build 0)  -->
<svg version="1.1" id="Layer_8" xmlns="http://www.w3.org/2000/svg" xmlns:xlink="http://www.w3.org/1999/xlink" x="0px" y="0px"
	 viewBox="0 0 563.9 518.6" style="enable-background:new 0 0 563.9 518.6;" xml:space="preserve">
<style type="text/css">
	.st0{fill:url(#SVGID_1_);}
</style>
<radialGradient id="SVGID_1_" cx="142.7444" cy="306.4474" r="103.7542" fx="82.809" fy="391.1391" gradientTransform="matrix(0.9983 -5.877106e-02 4.879535e-02 0.8288 -14.7065 60.845)" gradientUnits="userSpaceOnUse">
	<stop  offset="0" style="stop-color:#00016F"/>
	<stop  offset="0.1778" style="stop-color:#0F0B70"/>
	<stop  offset="0.3915" style="stop-color:#201772"/>
	<stop  offset="0.5055" style="stop-color:#2C2070"/>
	<stop  offset="0.5586" style="stop-color:#33256F"/>
	<stop  offset="0.9119" style="stop-color:#855160"/>
</radialGradient>
<path class="st0" d="M253.6,198.4c0.3-2.8-1.2-12.5-2.5-17.6c-1.1-4.3-2-9.3-2.6-11.3c-1-3.2-3-8.8-4-12.2
	c-1.4-5-7.4-31.7-15.6-39.8c-6.4,10.3-45.8,80.1-49.6,87.6c-2.7,5.3-8.7,15-12.6,22l0,0c-7,12.4-21.7,38.6-27.3,48.4l-6.4,11.6
	c-2.8,4.7-6.1,10.8-7.7,13.7c-1,1.7-2.8,4.7-7.1,12.3c-5.1,9.3-15.4,27.8-29.6,53l0.2,0.1c21.7,1,41.7-5.7,55.4-10.6
	c12.6-4.5,22.4-12.1,23.9-12.6c1.3-0.4,13.3-10.1,15.3-11.6c3.4-2.4,4.7-3.7,7.1-5.7c4.1-3.1,5.4-3.8,7.5-5.4c3-2.6,5.1-4.5,9.1-8.6
	c5.1-5,7.4-6.2,11.1-10.4c9.1-8.4,15.4-17.3,18.1-23.8c0.1-0.2,4-5.7,8.1-13.6c1.5-3.1,3.4-9.9,3.3-10c0,0,4.8-17.4,4.8-17.5
	c1.5-6.9,0.1-11,1.4-20.9c0,0,0,0,0,0C255.6,214.8,253.6,198.9,253.6,198.4z"/>
</svg>
