<?xml version="1.0" encoding="utf-8"?>
<!-- Generator: Adobe Illustrator 24.1.3, SVG Export Plug-In . SVG Version: 6.00 Build 0)  -->
<svg version="1.1" id="Layer_8" xmlns="http://www.w3.org/2000/svg" xmlns:xlink="http://www.w3.org/1999/xlink" x="0px" y="0px"
	 viewBox="0 0 563.9 518.6" style="enable-background:new 0 0 563.9 518.6;" xml:space="preserve">
<style type="text/css">
	.st0{fill:url(#SVGID_1_);}
</style>
<radialGradient id="SVGID_1_" cx="245.5575" cy="367.3944" r="242.4315" fx="256.4412" fy="382.2532" gradientTransform="matrix(0.9614 0.2751 -0.4418 1.5443 171.7849 -267.5008)" gradientUnits="userSpaceOnUse">
	<stop  offset="0.5068" style="stop-color:#4059AD"/>
	<stop  offset="1" style="stop-color:#F4B942"/>
</radialGradient>
<path class="st0" d="M253.6,198.4c0.3-2.8-1.2-12.5-2.5-17.6c-1.1-4.3-2-9.3-2.6-11.3c-1-3.2-3-8.8-4-12.2
	c-1.4-5-7.4-32.6-15.6-40.7c-6.4,10.3-45.8,81-49.6,88.5c-2.7,5.3-8.7,15-12.6,22l0,0c-7,12.4-21.7,38.6-27.3,48.4l-6.4,11.6
	c-2.8,4.7-6.1,10.8-7.7,13.7c-1,1.7-2.8,4.7-7.1,12.3c-5.1,9.3-15.4,27.8-29.6,53l0.2,0.1c21.7,1,41.7-5.7,55.4-10.6
	c12.6-4.5,22.4-12.1,23.9-12.6c1.3-0.4,13.3-10.1,15.3-11.6c3.4-2.4,4.7-3.7,7.1-5.7c4.1-3.1,5.4-3.8,7.5-5.4c3-2.6,5.1-4.5,9.1-8.6
	c5.1-5,7.4-6.2,11.1-10.4c9.1-8.4,15.4-17.3,18.1-23.8c0.1-0.2,4-5.7,8.1-13.6c1.5-3.1,3.4-9.9,3.3-10c0,0,4.8-17.4,4.8-17.5
	c1.5-6.9,0.1-11,1.4-20.9c0,0,0,0,0,0C255.6,214.8,253.6,198.9,253.6,198.4z"/>
</svg>
