<?xml version="1.0" encoding="utf-8"?>
<!-- Generator: Adobe Illustrator 24.1.2, SVG Export Plug-In . SVG Version: 6.00 Build 0)  -->
<svg version="1.1" id="Layer_1" xmlns="http://www.w3.org/2000/svg" xmlns:xlink="http://www.w3.org/1999/xlink" x="0px" y="0px"
	 viewBox="0 0 255.8 156.6" style="enable-background:new 0 0 255.8 156.6;" xml:space="preserve">
<style type="text/css">
	.st0{fill:url(#SVGID_1_);}
	.st1{opacity:0.86;}
</style>
<linearGradient id="SVGID_1_" gradientUnits="userSpaceOnUse" x1="143.7692" y1="516.6212" x2="117.3058" y2="470.7853" gradientTransform="matrix(1 0 0 1 0 -402)">
	<stop  offset="0" style="stop-color:#D3D1A1"/>
	<stop  offset="1" style="stop-color:#65C8D0"/>
</linearGradient>
<path class="st0" d="M99.4,102.7c3.8,2.1,8.4,1.9,12.2-0.2c4.4-2.4,10-4.5,16.3-4.1c13.7,0.8,19.1,12.1,27,9.6
	c7.5-2.3,12.6-15.5,9.3-26.1c-3.6-11.6-16.4-17.5-25.8-16.8c-9.5,0.8-10,7.9-24.2,11c-7.8,1.7-11.7,0.4-16.2,4.1
	c-3.3,2.7-6.7,8-5.5,13.7C93.3,97.5,95.9,100.7,99.4,102.7z"/>
<path class="st1" d="M109.4,84.1c-2.1,0.6-4.2,2.6-3.8,4.5c0.4,1.9,3.3,2.5,3.7,2.6c2.5,0.5,5.9-0.6,6.4-2.7
	c0.3-1.2-0.5-2.3-0.7-2.6C113.7,84.1,111.3,83.6,109.4,84.1z"/>
</svg>
