<?xml version="1.0" encoding="utf-8"?>
<!-- Generator: Adobe Illustrator 24.1.2, SVG Export Plug-In . SVG Version: 6.00 Build 0)  -->
<svg version="1.1" id="Layer_1" xmlns="http://www.w3.org/2000/svg" xmlns:xlink="http://www.w3.org/1999/xlink" x="0px" y="0px"
	 viewBox="0 0 255.82 156.65" style="enable-background:new 0 0 255.82 156.65;" xml:space="preserve">
<style type="text/css">
	.st0{fill:url(#SVGID_1_);}
</style>
<linearGradient id="SVGID_1_" gradientUnits="userSpaceOnUse" x1="143.8157" y1="114.5995" x2="117.368" y2="68.7908">
	<stop  offset="0" style="stop-color:#D3D1A1"/>
	<stop  offset="1" style="stop-color:#65C8D0"/>
</linearGradient>
<path class="st0" d="M99.42,102.69c3.77,2.11,8.39,1.86,12.16-0.24c4.42-2.45,10.01-4.49,16.32-4.14
	c13.67,0.76,19.09,12.07,27.02,9.62c7.5-2.32,12.63-15.52,9.34-26.11c-3.58-11.55-16.4-17.52-25.83-16.76
	c-9.52,0.77-10.04,7.95-24.18,10.99c-7.82,1.68-11.71,0.36-16.21,4.12c-3.26,2.72-6.74,8.02-5.5,13.74
	C93.33,97.54,95.87,100.7,99.42,102.69z"/>
</svg>
