<?xml version="1.0" encoding="utf-8"?>
<!-- Generator: Adobe Illustrator 24.1.2, SVG Export Plug-In . SVG Version: 6.00 Build 0)  -->
<svg version="1.1" id="Layer_1" xmlns="http://www.w3.org/2000/svg" xmlns:xlink="http://www.w3.org/1999/xlink" x="0px" y="0px"
	 viewBox="0 0 255.82 156.65" style="enable-background:new 0 0 255.82 156.65;" xml:space="preserve">
<style type="text/css">
	.st0{fill:url(#SVGID_1_);}
</style>
<linearGradient id="SVGID_1_" gradientUnits="userSpaceOnUse" x1="152.9661" y1="119.0256" x2="115.6188" y2="54.3382">
	<stop  offset="0" style="stop-color:#D3D1A1"/>
	<stop  offset="1" style="stop-color:#65C8D0"/>
</linearGradient>
<path class="st0" d="M113.43,94.05c3.77,2.11,4.4,9.99,8.66,10.72c5.55,0.95-0.49,8.75,5.82,9.1c13.67,0.76,25.69,2.52,33.61,0.07
	c7.5-2.32,6.03-21.53,2.75-32.12c-3.58-11.55-24.78-36.07-34.21-35.31c-9.52,0.77,7.28,21-6.87,24.05
	c-7.82,1.68-10.47,7.09-14.98,10.85c-3.26,2.72-6.87,2.39-5.63,8.11C103.36,93.14,109.88,92.06,113.43,94.05z"/>
</svg>
