<?xml version="1.0" encoding="utf-8"?>
<!-- Generator: Adobe Illustrator 24.1.2, SVG Export Plug-In . SVG Version: 6.00 Build 0)  -->
<svg version="1.1" id="Layer_1" xmlns="http://www.w3.org/2000/svg" xmlns:xlink="http://www.w3.org/1999/xlink" x="0px" y="0px"
	 viewBox="0 0 255.82 156.65" style="enable-background:new 0 0 255.82 156.65;" xml:space="preserve">
<style type="text/css">
	.st0{fill:url(#SVGID_1_);}
</style>
<linearGradient id="SVGID_1_" gradientUnits="userSpaceOnUse" x1="154.9778" y1="128.3994" x2="111.6765" y2="53.3994">
	<stop  offset="0" style="stop-color:#D3D1A1"/>
	<stop  offset="1" style="stop-color:#65C8D0"/>
</linearGradient>
<path class="st0" d="M127.91,94.05c0,1.26,0,8.04,0,10.72c0,5.63,0,10.28,0,14.26c16.57,0,33.89,0,43.3,0
	c-2.13-3.54-12.73-22.12-18.3-31.71c-5.71-9.82-23.38-40.51-25-43.29c0,3.35,0,12.06,0,26.53c0,6.04-0.02,8.5-0.02,10.69
	c0.02,4.18,0.02,2.43,0.02,8.28C127.91,90.41,127.91,93.01,127.91,94.05z"/>
</svg>
