<?xml version="1.0" encoding="utf-8"?>
<!-- Generator: Adobe Illustrator 24.1.3, SVG Export Plug-In . SVG Version: 6.00 Build 0)  -->
<svg version="1.1" id="Layer_1" xmlns="http://www.w3.org/2000/svg" xmlns:xlink="http://www.w3.org/1999/xlink" x="0px" y="0px"
	 viewBox="0 0 266.3 139.5" style="enable-background:new 0 0 266.3 139.5;" xml:space="preserve">
<style type="text/css">
	.st0{fill:#DCA1C9;}
</style>
<path class="st0" d="M194.3,4.7c-25.7,0-47.7,16-56.5,38.6v-0.3c-8.8,22.2-17.2,19.8-19.6,18.8c-3.3-1.8-7.2-5.6-11.2-13.3
	C100.1,30,82.3,16.8,61.5,16.8c-26.8,0-48.5,21.7-48.5,48.5c0,26.8,21.7,48.5,48.5,48.5c20.9,0,38.6-13.2,45.5-31.6
	c4.1-7.7,7.9-11.6,11.2-13.3c2.4-0.9,10.7-3.4,19.6,18.8v-0.3c8.8,22.6,30.8,38.6,56.5,38.6c33.5,0,60.7-27.2,60.7-60.7
	C255,31.8,227.8,4.7,194.3,4.7z"/>
</svg>
